<svg version="1.1" xmlns="http://www.w3.org/2000/svg" enable-background="new 0 0 8 8" style="display:none;">
  <defs>
    <path d="M5 0l-4 4 4 4 1.5-1.5-2.5-2.5 2.5-2.5-1.5-1.5z" id="chevron-left"></path>

    <path d="M2.5 0l-1.5 1.5 2.5 2.5-2.5 2.5 1.5 1.5 4-4-4-4z" id="chevron-right"></path>
    
    <path d="M0 1v1h8v-1h-8zm0 2.969v1h8v-1h-8zm0 3v1h8v-1h-8z" id="menu"></path>
    
    <path d="M1.406 0l-1.406 1.406.688.719 1.781 1.781-1.781 1.781-.688.719 1.406 1.406.719-.688 1.781-1.781 1.781 1.781.719.688 1.406-1.406-.688-.719-1.781-1.781 1.781-1.781.688-.719-1.406-1.406-.719.688-1.781 1.781-1.781-1.781-.719-.688z" id="x"></path>
  </defs>
</svg>
